# xmcd
#
# Track frame offsets:
#	150
#	12540
#	29050
#	40685
#	60310
#	74837
#	90302
#	99662
#	114542
#	130385
#	142687
#	161997
#	190240
#
# Disc length: 2891 seconds
#
# Revision: 1
# Processed by: cddbd v1.5.1PL0 Copyright (c) Steve Scherf et al.
# Submitted via: CDex 1.50Beta5
#
DISCID=b60b490d
DTITLE=美輪明宏 - 日本の心を歌う
DYEAR=1999
DGENRE=
TTITLE0=赤とんぼ
TTITLE1=宵待草
TTITLE2=おぼろ月夜
TTITLE3=花嫁人形
TTITLE4=冬景色
TTITLE5=砂山
TTITLE6=あわて床屋
TTITLE7=出船
TTITLE8=夕やけこやけ
TTITLE9=城ヶ島の雨
TTITLE10=白月
TTITLE11=惜別の歌
TTITLE12=花
EXTD=
EXTT0=
EXTT1=
EXTT2=
EXTT3=
EXTT4=
EXTT5=
EXTT6=
EXTT7=
EXTT8=
EXTT9=
EXTT10=
EXTT11=
EXTT12=
PLAYORDER=
